<?xml version="1.0" encoding="utf-8"?>
<!-- Uploaded to: SVG Repo, www.svgrepo.com, Generator: SVG Repo Mixer Tools -->
<svg width="800px" height="800px" viewBox="0 0 1024 1024" class="icon"  version="1.1" xmlns="http://www.w3.org/2000/svg"><path d="M810.666667 277.333333h-64c-117.333333 0-213.333333 96-213.333334 213.333334s96 213.333333 213.333334 213.333333h64c117.333333 0 213.333333-96 213.333333-213.333333s-96-213.333333-213.333333-213.333334z m0 341.333334h-64c-70.4 0-128-57.6-128-128s57.6-128 128-128h64c70.4 0 128 57.6 128 128s-57.6 128-128 128zM277.333333 277.333333h-64C96 277.333333 0 373.333333 0 490.666667s96 213.333333 213.333333 213.333333h64c117.333333 0 213.333333-96 213.333334-213.333333s-96-213.333333-213.333334-213.333334z m0 341.333334h-64c-70.4 0-128-57.6-128-128s57.6-128 128-128h64c70.4 0 128 57.6 128 128s-57.6 128-128 128z" fill="#1976D2" /><path d="M704 448H320c-23.466667 0-42.666667 19.2-42.666667 42.666667s19.2 42.666667 42.666667 42.666666h384c23.466667 0 42.666667-19.2 42.666667-42.666666s-19.2-42.666667-42.666667-42.666667z" fill="#42A5F5" /></svg>